<svg width="18" height="18" viewBox="0 0 18 18" fill="none" xmlns="http://www.w3.org/2000/svg">
<path d="M17.3415 16.2089C17.7052 16.2089 18 16.498 18 16.8545C18 17.1813 17.7523 17.4514 17.4308 17.4941L17.3415 17.5H10.471C10.1073 17.5 9.81246 17.211 9.81246 16.8545C9.81246 16.5277 10.0602 16.2576 10.3816 16.2148L10.471 16.2089H17.3415ZM10.6592 1.41662C11.906 0.194461 13.9283 0.194461 15.175 1.41662L16.4694 2.6854C17.7162 3.90755 17.7162 5.88985 16.4694 7.112L6.74061 16.6486C6.1843 17.1939 5.43007 17.4999 4.64282 17.4999H0.658541C0.288415 17.4999 -0.00901523 17.201 0.000208899 16.8383L0.100432 12.8975C0.120357 12.1526 0.43127 11.4425 0.968667 10.9157L10.6592 1.41662ZM9.906 3.979L1.89998 11.8287C1.60126 12.1215 1.42814 12.5169 1.41707 12.9305L1.33345 16.2084L4.64282 16.2088C5.03222 16.2088 5.4067 16.0745 5.70228 15.8317L5.8093 15.7357L13.855 7.849L9.906 3.979ZM14.2437 2.32953C13.5113 1.61156 12.323 1.61156 11.5905 2.32953L10.838 3.066L14.786 6.936L15.5381 6.19909C16.2298 5.52101 16.2683 4.44433 15.6534 3.72195L15.5381 3.59831L14.2437 2.32953Z" fill="currentColor"/>
</svg>
