<svg width="20" height="20" viewBox="0 0 20 20" fill="none" xmlns="http://www.w3.org/2000/svg">
<path d="M7.73049 0.788233C9.00049 -0.220767 10.7805 -0.260768 12.0895 0.668233L12.2505 0.788233L18.3395 5.65923C19.0095 6.17823 19.4205 6.94923 19.4905 7.78823L19.5005 7.98923V16.0982C19.5005 18.1882 17.8495 19.8882 15.7805 19.9982H13.7905C12.8395 19.9792 12.0705 19.2392 12.0005 18.3092L11.9905 18.1682V15.3092C11.9905 14.9982 11.7595 14.7392 11.4505 14.6882L11.3605 14.6782H8.68949C8.37049 14.6882 8.11049 14.9182 8.07049 15.2182L8.06049 15.3092V18.1592C8.06049 18.2182 8.04949 18.2882 8.04049 18.3382L8.03049 18.3592L8.01949 18.4282C7.90049 19.2792 7.20049 19.9282 6.33049 19.9892L6.20049 19.9982H4.41049C2.32049 19.9982 0.610488 18.3592 0.500488 16.2982V7.98923C0.509488 7.13823 0.880488 6.34823 1.50049 5.79823L7.73049 0.788233ZM11.3805 1.87823C10.6205 1.26823 9.54049 1.23923 8.74049 1.76823L8.58949 1.87823L2.50949 6.77923C2.16049 7.03823 1.95049 7.42823 1.90049 7.83823L1.88949 7.99823V16.0982C1.88949 17.4282 2.92949 18.5182 4.25049 18.5982H6.20049C6.42049 18.5982 6.61049 18.4492 6.63949 18.2392L6.66049 18.0592L6.67049 18.0082V15.3092C6.67049 14.2392 7.49049 13.3692 8.54049 13.2882H11.3605C12.4295 13.2882 13.2995 14.1092 13.3805 15.1592V18.1682C13.3805 18.3782 13.5305 18.5592 13.7305 18.5982H15.5895C16.9295 18.5982 18.0195 17.5692 18.0995 16.2582L18.1105 16.0982V7.99823C18.0995 7.56923 17.9205 7.16823 17.6105 6.86923L17.4805 6.75823L11.3805 1.87823Z" fill="currentColor"/>
</svg>
