<svg width="20" height="20" viewBox="0 0 20 20" fill="none" xmlns="http://www.w3.org/2000/svg">
<path d="M10 0.000244141C15.5229 0.000244141 20 4.4777 20 10.0002C20 15.5228 15.5229 20.0002 10 20.0002C4.47779 20.0002 0 15.5225 0 10.0002C0 4.47803 4.47779 0.000244141 10 0.000244141ZM10 1.50024C5.30621 1.50024 1.5 5.30646 1.5 10.0002C1.5 14.694 5.30621 18.5002 10 18.5002C14.6944 18.5002 18.5 14.6944 18.5 10.0002C18.5 5.3061 14.6944 1.50024 10 1.50024ZM10.0051 13.0461C10.4193 13.0461 10.7551 13.3819 10.7551 13.7961C10.7551 14.1758 10.4729 14.4896 10.1069 14.5393L9.9951 14.5461C9.58089 14.5461 9.2451 14.2104 9.2451 13.7961C9.2451 13.4164 9.52725 13.1027 9.89333 13.053L10.0051 13.0461ZM9.9951 5.45434C10.3748 5.45434 10.6886 5.7365 10.7383 6.10257L10.7451 6.20434V10.6233C10.7451 11.0376 10.4093 11.3733 9.9951 11.3733C9.6154 11.3733 9.30161 11.0912 9.25195 10.7251L9.2451 10.6233V6.20434C9.2451 5.79013 9.58089 5.45434 9.9951 5.45434Z" fill="currentColor"/>
</svg>
