<svg width="20" height="20" viewBox="0 0 20 20" fill="none" xmlns="http://www.w3.org/2000/svg">
<path d="M19.9636 4.7743L18.535 0.488588C18.4378 0.196749 18.1647 -8.36786e-05 17.8572 2.6687e-08H2.14287C1.83529 -8.36786e-05 1.5622 0.196749 1.46502 0.488588L0.0364223 4.7743C0.0144078 4.84101 0.00210312 4.91053 1.04904e-05 4.98072C1.04904e-05 4.98787 1.04904e-05 4.99285 1.04904e-05 5.00001V5.71431C0.00260535 6.83345 0.531832 7.88613 1.42857 8.55573C1.42857 8.56146 1.42857 8.56573 1.42857 8.57142V17.8571C1.42857 19.0406 2.38796 20 3.57142 20H16.4286C17.612 20 18.5714 19.0406 18.5714 17.8571V8.57142C18.5714 8.56569 18.5714 8.56142 18.5714 8.55573C19.4681 7.88613 19.9974 6.83345 20 5.71431V5.00001C20 4.99285 20 4.98787 20 4.98072C19.9979 4.91049 19.9856 4.84097 19.9636 4.7743ZM2.7 1.42856H17.3422L18.295 4.28571H1.7L2.7 1.42856ZM11.4286 18.5714H8.57143V12.8571H11.4286V18.5714ZM17.1429 17.8571C17.1429 18.2516 16.8231 18.5714 16.4286 18.5714H12.8571V12.1429C12.8571 11.7484 12.5373 11.4286 12.1428 11.4286H7.85713C7.46263 11.4286 7.14283 11.7484 7.14283 12.1429V18.5714H3.57142C3.17692 18.5714 2.85712 18.2516 2.85712 17.8571V9.21428C3.85954 9.42007 4.90192 9.18084 5.71428 8.55857C6.98936 9.49507 8.72491 9.49507 9.99999 8.55857C11.2751 9.49507 13.0106 9.49507 14.2857 8.55857C15.0981 9.18088 16.1404 9.42007 17.1429 9.21428V17.8571ZM16.4286 7.85712C15.8109 7.85675 15.2243 7.58579 14.8235 7.1157C14.564 6.81868 14.1127 6.78829 13.8157 7.04786C13.7916 7.06891 13.7689 7.0916 13.7479 7.1157C12.9536 8.00214 11.5912 8.07685 10.7048 7.28265C10.6462 7.23009 10.5904 7.17438 10.5378 7.1157C10.2583 6.81868 9.79089 6.80445 9.49382 7.08402C9.48294 7.09428 9.47235 7.10482 9.46214 7.1157C8.66794 8.00214 7.30552 8.07685 6.41908 7.28265C6.3604 7.23009 6.30469 7.17438 6.25213 7.1157C5.97259 6.81868 5.50514 6.80445 5.20811 7.08402C5.19723 7.09428 5.18664 7.10482 5.17643 7.1157C4.77569 7.58579 4.18917 7.85675 3.57142 7.85712C2.38796 7.85712 1.42857 6.89774 1.42857 5.71427H18.5714C18.5714 6.89774 17.612 7.85712 16.4286 7.85712Z" fill="currentColor"/>
</svg>
