<svg width="14" height="14" viewBox="0 0 14 14" fill="none" xmlns="http://www.w3.org/2000/svg">
<path d="M8.30082 0.811045L8.42237 0.924383L8.90153 1.40355C9.06612 1.56736 9.28201 1.66836 9.51166 1.69105L9.61082 1.69594H10.2962C11.3654 1.69594 12.2397 2.53205 12.3007 3.58597L12.3042 3.70394V4.3886C12.3042 4.6218 12.3846 4.84598 12.5296 5.02424L12.5957 5.09772L13.0749 5.57692C13.8292 6.32785 13.863 7.52871 13.1719 8.32009L13.0817 8.41682L12.5961 8.9024C12.4328 9.06611 12.3318 9.28216 12.309 9.51158L12.3042 9.6106V10.2966C12.3042 11.3658 11.4681 12.2395 10.4141 12.3005L10.2962 12.3039H9.61082C9.37846 12.3039 9.15398 12.3847 8.97563 12.5301L8.90212 12.5964L8.42357 13.0743C7.67344 13.8295 6.47171 13.863 5.68003 13.1717L5.57726 13.0755L5.09919 12.5974C4.93359 12.433 4.7173 12.3316 4.4883 12.3088L4.38948 12.3039H3.70348C2.63473 12.3039 1.76063 11.4683 1.69956 10.4145L1.69615 10.2966V9.6106C1.69615 9.37862 1.61529 9.15392 1.4699 8.9759L1.40369 8.90258L0.9256 8.42382C0.17055 7.67303 0.137058 6.47128 0.828404 5.68038L0.918598 5.58372L1.40268 5.09897C1.56731 4.93317 1.66853 4.71729 1.69126 4.48772L1.69615 4.3886V3.70394L1.69956 3.58598C1.75837 2.5712 2.57115 1.75818 3.58557 1.69935L3.70348 1.69594H4.38948C4.6218 1.69594 4.84632 1.61535 5.02435 1.47056L5.09769 1.40463L5.57646 0.925184C6.32737 0.170866 7.52899 0.137657 8.30082 0.811045ZM6.36109 1.56179L6.28462 1.63124L5.80378 2.11274C5.45895 2.45513 5.00287 2.65985 4.52137 2.69159L4.38948 2.69594H3.70348C3.17844 2.69594 2.74663 3.0987 2.70027 3.61222L2.69615 3.70394V4.3886C2.69615 4.87471 2.51974 5.34214 2.20155 5.70752L2.11128 5.80458L1.6265 6.29002C1.25863 6.65957 1.23721 7.24335 1.56231 7.63938L1.63195 7.71596L2.11146 8.19614C2.45439 8.53988 2.65992 8.99677 2.69179 9.47863L2.69615 9.6106V10.2966C2.69615 10.822 3.09862 11.2535 3.61183 11.2998L3.70348 11.3039H4.38948C4.87468 11.3039 5.34251 11.4805 5.70797 11.7988L5.80504 11.889L6.28725 12.3713C6.65939 12.7413 7.24333 12.7629 7.639 12.4378L7.71551 12.3681L8.1961 11.8882C8.54058 11.5454 8.99686 11.3401 9.47881 11.3083L9.61082 11.3039H10.2962C10.8219 11.3039 11.2537 10.9017 11.3 10.3883L11.3042 10.2966V9.6106C11.3042 9.1247 11.4807 8.65604 11.7985 8.29226L11.8886 8.19572L12.3736 7.71072C12.7415 7.34075 12.7628 6.75726 12.4381 6.36138L12.3686 6.28482L11.8873 5.80357C11.5447 5.45852 11.3402 5.0029 11.3085 4.52071L11.3042 4.3886V3.70394C11.3042 3.17833 10.9014 2.74642 10.3879 2.70006L10.2962 2.69594H9.61082C9.1247 2.69594 8.65667 2.51968 8.29207 2.2017L8.19526 2.11149L7.73664 1.65164L7.71007 1.62696C7.34055 1.25911 6.75664 1.23758 6.36109 1.56179ZM9.06442 8.36167C9.11108 8.40834 9.15108 8.46167 9.17775 8.52167C9.19775 8.58167 9.21108 8.64834 9.21108 8.715C9.21108 8.78234 9.19775 8.84167 9.17775 8.90167C9.15108 8.96167 9.11108 9.02167 9.06442 9.06834C8.97108 9.16167 8.84442 9.215 8.71108 9.215C8.57775 9.215 8.45108 9.16167 8.35775 9.06834C8.31108 9.02167 8.27775 8.96167 8.25108 8.90167C8.22442 8.84167 8.21108 8.78234 8.21108 8.715C8.21108 8.64834 8.22442 8.58167 8.25108 8.52167C8.27775 8.46167 8.31108 8.40834 8.35775 8.36167C8.54442 8.175 8.87775 8.175 9.06442 8.36167ZM9.06684 4.93285C9.24435 5.11036 9.26049 5.38814 9.11525 5.58388L9.06684 5.63996L5.64017 9.06662C5.44491 9.26188 5.12833 9.26188 4.93306 9.06662C4.75555 8.88911 4.73942 8.61134 4.88465 8.41559L4.93306 8.35952L8.35973 4.93285C8.55499 4.73759 8.87158 4.73759 9.06684 4.93285ZM5.63768 4.93527C5.73102 5.02794 5.78435 5.15527 5.78435 5.2886C5.78435 5.35527 5.77768 5.4146 5.75102 5.47527C5.72435 5.53527 5.68435 5.5886 5.63768 5.64194C5.59102 5.6886 5.53768 5.72127 5.47768 5.74794C5.41768 5.7746 5.35102 5.7886 5.28435 5.7886C5.21768 5.7886 5.15768 5.7746 5.09768 5.74794C5.03768 5.72127 4.97768 5.6886 4.93102 5.64194C4.88435 5.5886 4.85102 5.53527 4.82435 5.47527C4.79768 5.4146 4.78435 5.35527 4.78435 5.2886C4.78435 5.22127 4.79768 5.15527 4.82435 5.09527C4.85102 5.03527 4.88435 4.97527 4.93102 4.93527C5.12435 4.74794 5.45102 4.74794 5.63768 4.93527Z" fill="currentColor"/>
</svg>
