<svg width="15" height="15" viewBox="0 0 15 15" fill="none" xmlns="http://www.w3.org/2000/svg">
<path fill-rule="evenodd" clip-rule="evenodd" d="M1.66667 6.66667C1.66667 3.90917 3.90917 1.66667 6.66667 1.66667C9.42417 1.66667 11.6667 3.90917 11.6667 6.66667C11.6667 9.42417 9.42417 11.6667 6.66667 11.6667C3.90917 11.6667 1.66667 9.42417 1.66667 6.66667ZM14.7558 13.5775L11.9267 10.7475C12.8042 9.61917 13.3333 8.205 13.3333 6.66667C13.3333 2.99083 10.3425 0 6.66667 0C2.99083 0 0 2.99083 0 6.66667C0 10.3425 2.99083 13.3333 6.66667 13.3333C8.205 13.3333 9.61917 12.8042 10.7475 11.9267L13.5775 14.7558C13.74 14.9183 13.9533 15 14.1667 15C14.38 15 14.5933 14.9183 14.7558 14.7558C15.0817 14.43 15.0817 13.9033 14.7558 13.5775Z" fill="currentColor"/>
</svg>
