<svg width="20" height="20" viewBox="0 0 20 20" fill="none" xmlns="http://www.w3.org/2000/svg">
<path d="M7.59149 12.4563L7.91127 12.4576C12.5557 12.4981 15.1835 13.4361 15.1835 15.9983C15.1835 18.5061 12.665 19.4736 8.22363 19.5546L7.59149 19.5603C2.74715 19.5603 0.000488281 18.6394 0.000488281 16.0183C0.000488281 13.3937 2.75808 12.4563 7.59149 12.4563ZM7.59149 13.9563C3.57414 13.9563 1.50049 14.6612 1.50049 16.0183C1.50049 17.3667 3.56916 18.0603 7.59149 18.0603C11.6091 18.0603 13.6835 17.3552 13.6835 15.9983C13.6835 14.6505 11.6129 13.9563 7.59149 13.9563ZM15.5872 11.7481C16.1677 11.7876 16.7449 11.8708 17.2996 11.9938C18.4877 12.2301 19.371 12.6713 19.7757 13.5204C20.0745 14.1491 20.0745 14.8806 19.7757 15.5092C19.3733 16.3563 18.4992 16.7942 17.3044 17.04C16.8987 17.1234 16.5021 16.8622 16.4187 16.4565C16.3352 16.0507 16.5965 15.6542 17.0022 15.5707C17.771 15.4126 18.2827 15.1562 18.4209 14.8654C18.5261 14.6441 18.5261 14.3856 18.4213 14.165C18.2822 13.8732 17.7678 13.6163 16.9912 13.4616C16.4938 13.3515 15.991 13.279 15.4854 13.2446C15.0721 13.2165 14.7599 12.8587 14.788 12.4455C14.8161 12.0322 15.1739 11.72 15.5872 11.7481ZM7.59149 0.499756C10.4395 0.499756 12.7265 2.78636 12.7265 5.63376C12.7265 8.48197 10.4397 10.7688 7.59149 10.7688C4.74341 10.7688 2.45749 8.48211 2.45749 5.63376C2.45749 2.78622 4.74359 0.499756 7.59149 0.499756ZM14.0202 1.56936C16.2551 1.56936 18.0672 3.38183 18.0672 5.61636C18.0672 7.85157 16.2554 9.66336 14.0202 9.66336C13.606 9.66336 13.2702 9.32757 13.2702 8.91336C13.2702 8.49914 13.606 8.16336 14.0202 8.16336C15.427 8.16336 16.5672 7.02314 16.5672 5.61636C16.5672 4.21019 15.4266 3.06936 14.0202 3.06936C13.606 3.06936 13.2702 2.73357 13.2702 2.31936C13.2702 1.90514 13.606 1.56936 14.0202 1.56936ZM7.59149 1.99976C5.57207 1.99976 3.95749 3.6146 3.95749 5.63376C3.95749 7.65379 5.57195 9.26876 7.59149 9.26876C9.61127 9.26876 11.2265 7.65354 11.2265 5.63376C11.2265 3.61484 9.61115 1.99976 7.59149 1.99976Z" fill="currentColor"/>
</svg>
