<svg width="20" height="20" viewBox="0 0 20 20" fill="none" xmlns="http://www.w3.org/2000/svg">
<path d="M14.188 0.5C17.3978 0.5 20 3.16116 20 6.44374V13.5563C20 16.8388 17.3978 19.5 14.188 19.5H5.81204C2.60219 19.5 0 16.8388 0 13.5563V6.44374C0 3.16116 2.60219 0.5 5.81204 0.5H14.188ZM14.188 1.98651H5.81204C3.40498 1.98651 1.45358 3.98213 1.45358 6.44374V13.5563C1.45358 16.0179 3.40498 18.0135 5.81204 18.0135H14.188C16.595 18.0135 18.5464 16.0179 18.5464 13.5563L18.546 13.279L15.3499 13.2798C13.5084 13.2787 12.0159 11.7531 12.0147 9.86949C12.0147 8.04914 13.4101 6.56244 15.1673 6.46431L15.3504 6.45916L18.546 6.459L18.5464 6.44374C18.5464 4.05454 16.7081 2.10431 14.3991 1.99165L14.188 1.98651ZM18.546 7.945L15.3508 7.94567C14.3109 7.94632 13.4683 8.80743 13.4683 9.86904C13.4689 10.8811 14.2329 11.7102 15.2033 11.7874L15.3504 11.7933L18.546 11.793V7.945ZM15.7942 9.06518C16.1956 9.06518 16.521 9.39795 16.521 9.80844C16.521 10.1847 16.2475 10.4957 15.8928 10.5449L15.7942 10.5517H15.4921C15.0907 10.5517 14.7653 10.2189 14.7653 9.80844C14.7653 9.43215 15.0388 9.12118 15.3935 9.07196L15.4921 9.06518H15.7942ZM10.3539 4.99736C10.7553 4.99736 11.0807 5.33013 11.0807 5.74062C11.0807 6.1169 10.8073 6.42788 10.4525 6.47709L10.3539 6.48388H5.12203C4.72063 6.48388 4.39524 6.15111 4.39524 5.74062C4.39524 5.36434 4.66866 5.05337 5.0234 5.00415L5.12203 4.99736H10.3539Z" fill="currentColor"/>
</svg>
